# xmcd
#
# Track frame offsets:
#	150
#	18887
#	39937
#	60272
#	81205
#	98392
#	117605
#	136612
#	156037
#	175822
#
# Disc length: 2600 seconds
#
# Revision: 1
# Processed by: cddbd v1.5.2PL0 Copyright (c) Steve Scherf et al.
# Submitted via: EasyCDDAExtractor 15.3.0.1
#
DISCID=670a260a
DTITLE=Grupo Mania - Dance Mania
DYEAR=1995
DGENRE=Latin
TTITLE0=Loco De Amor
TTITLE1=Ojitos Bellos
TTITLE2=Salva Mi Amor
TTITLE3=Por Un Amor
TTITLE4=La Vida Que Llevo
TTITLE5=Estoy Dejao
TTITLE6=Soy Tuyo
TTITLE7=Como Me Haces Falta
TTITLE8=Ya Estas Para Amar
TTITLE9=Me Quiere
EXTD=Grupo Mania\n\nLoco de Amor\nOjitos Bellos\nSalva Mi Amor\nPor un Amor\nL
EXTD=a Vida Que Llevo\nEstoy Dejao\nSoy Tuyo\nComo Me Haces Falta\nYa Estas Pa
EXTD=ra Amar\nMe Quiere
EXTT0=
EXTT1=
EXTT2=
EXTT3=
EXTT4=
EXTT5=
EXTT6=
EXTT7=
EXTT8=
EXTT9=
PLAYORDER=
